<?xml version="1.0" encoding="utf-8"?>
<!-- Generator: Adobe Illustrator 27.2.0, SVG Export Plug-In . SVG Version: 6.00 Build 0)  -->
<svg version="1.1" id="Слой_1" xmlns="http://www.w3.org/2000/svg" xmlns:xlink="http://www.w3.org/1999/xlink" x="0px" y="0px"
	 viewBox="0 0 160 160" style="enable-background:new 0 0 160 160;" xml:space="preserve">
<style type="text/css">
	.st0{fill:#F6A505;}
	.st1{fill:#6292C7;}
	.st2{fill:#C2C2C3;}
	.st3{fill:#FFFFFF;}
	.st4{clip-path:url(#SVGID_00000111180273641431528260000006969930613138958762_);}
	.st5{fill:#33C6F4;}
	.st6{fill:#1B447E;}
	.st7{fill:none;stroke:#221E1F;stroke-width:2.8346;stroke-miterlimit:10;}
</style>
<circle class="st0" cx="58.3" cy="29.2" r="17.8"/>
<g>
	<path class="st1" d="M85.1,53.2c0,0.3,0,0.7,0,1c-0.7,1.7-1.6,3.2-2.8,4.6c-2.8,2.9-5.7,5.7-8.9,8.1c-5,3.9-9.8,8-14.4,12.3
		c-0.5,0.4-0.9,0.6-1.5,0.6c-1.9-0.1-3.8-0.2-5.7-0.2c-2.4-0.2-4.7,0-7.2,0.2c-2.3,0.2-4.3,0.8-6.3,2c-2.4,1.5-4.1,3.6-5.8,5.8
		c-2.1,2.8-4.2,5.5-5.3,8.9c-0.7,2.4,0.2,4.1,2.6,5c0.9,0.4,2,0,3.1,0.5c-1.5,1-2.4,2.5-3.5,3.7c-0.9,0.9-1.4,2-1.8,3.2
		c-0.5,1.4,0,2.4,1,3.1c2,1.7,4.6,1.8,6.9,1.9c1.8,0.1,3.7-0.2,5.4-0.9c0.3-0.1,0.6-0.2,0.8,0.4c0.8,2.5,2.4,3.8,4.8,4
		c5,0.5,8.5-2.2,11.7-5.5c0.3-0.3,0.8-0.9,0.3-1.4s-1,0-1.5,0.2c-0.9,0.6-1.6,1.3-2.4,1.9c-2.2,1.5-4.5,2.6-7.2,2.3
		c-1.2-0.1-2.4-0.5-3-1.7s0.5-2,1.1-2.8c0.9-1.2,2-2.1,3.1-3.1c3.1-2.7,6.3-4.6,10.8-3.9c4.1,0.6,8,1.5,11.8,3.2
		c3.1,1.4,3.6,3.2,2.1,6.4c-1.6,3.4-4,6.2-6.6,8.8c-2.7,2.6-5.5,5.1-8.6,7.2c-3.5,2.4-7.3,5-13.1,6.4c-1.1,0.3-2,0.5-2.7,0.6
		c-0.6,0-1.3,0.1-1.9,0.1c-0.4,0-0.9,0-1.6-0.1c0,0-0.6-0.2-1-0.2c-6.8-1.6-13.8-7.6-13.8-7.6c-4.2-3.5-7.8-7.7-10.1-12.8
		c-1.8-4-2.6-8.1-1.4-12.5c1.1-4.3,3.1-8.3,4.3-12.6c0.9-3.1,1.9-6.3,2.1-9.6c0.3-3.5-0.4-6.8-1.4-10.1c-1.3-4.3-3.1-8.3-6.1-11.9
		c-2.1-2.6-1.2-5.3,2-6.3c2.8-0.9,5.3-0.2,7.7,1.1c4.6,2.4,7.4,6.3,9.3,10.9c2,4.9,3.1,9.9,3.1,15.1c0,0.2-0.1,0.6,0.2,0.6
		c0.2,0,0.4-0.2,0.6-0.3c3.3-2.6,6.7-5.3,10-7.9C50,67.4,55.9,63.1,61.9,59c4-2.8,8-5.4,12.7-7.2c1.7-0.6,3.5-0.9,5.1-1.3
		c0.5,0,0.9,0,1.3,0C82.8,50.9,84.3,51.6,85.1,53.2z"/>
	<path class="st1" d="M71.8,100.1c-0.1,0.9-0.2,1.7-0.2,2.4c-0.1,1.2-0.5,1.1-1.3,0.8c-3.7-1.3-7.5-1.9-11.3-2.4
		c-4.3-0.6-7.5,1-10.6,3.7c-1.6,1.3-3.1,2.8-4.6,4.1c-2,1.6-4.4,2.3-6.9,2.5c-1.4,0.2-2.9,0.2-4.4-0.2c-1.7-0.5-2.1-1.4-1.2-2.8
		c1.3-2,3-3.8,4.8-5.4c1.9-1.7,3.9-3.4,5.8-5.1c1.2-1,2.3-2,3.6-2.9c1.7-1,3.5-1.3,5.4-1.4c5.8-0.3,11.6,0.2,17.1,2
		C70.7,96.2,72.1,97.6,71.8,100.1z"/>
	<path class="st1" d="M48.9,82.5c4.2-0.1,8.5,0.4,12.7,1c3.4,0.6,4.3,3,3.8,5.8c-0.4,2.2-0.6,2.2-3.5,1.7c-4.8-0.9-9.6-1.1-14.4-0.2
		c-2.2,0.5-4,1.7-5.7,3.1c-2,1.7-4,3.4-6.1,5c-1.1,0.9-4.6,0.6-5.7-0.2c-0.9-0.8-0.6-1.7-0.2-2.6c1.1-2.4,2.8-4.6,4.4-6.8
		c1.2-1.7,2.5-3.1,4.1-4.5c2.1-1.8,4.7-2.3,7.4-2.4C47,82.4,47.9,82.5,48.9,82.5z"/>
</g>
<path class="st2" d="M32.7,42c-0.7-0.2-1.3-0.6-1.8-1c-3.1-2.1-6.1-4.1-9.4-6c-2.4-1.4-4.7-2.8-7.1-4.2c-3.2-1.9-6.5-3.7-9.8-5.6
	c-1.4-0.8-2.8-1.7-3.7-3.1c-0.3-0.5-0.2-1-0.2-1.5c0.1-0.3,0.4-0.5,0.7-0.5C2.3,20,3,20.4,3.7,20.9c3.3,2.3,6.6,4.6,9.9,6.9
	c3.6,2.6,7.2,5.3,10.9,7.9c2.5,1.8,5,3.7,7.5,5.5C32.3,41.4,32.5,41.6,32.7,42z"/>
<path class="st2" d="M19.6,41.2c-0.6,0.2-1.3-0.1-2-0.2c-3.5-0.7-7.1-1.3-10.6-1.8c-1.7-0.2-3.5-0.6-5.2-0.9c-0.6-0.1-1-0.4-1.5-0.7
	C0.1,37.4-0.1,37,0,36.7S0.4,36,0.7,36c0.5,0,0.9-0.1,1.3,0.1c4.2,1.4,8.5,2.5,12.8,3.6c1.4,0.4,2.8,0.7,4.2,1
	C19.3,40.8,19.5,40.9,19.6,41.2z"/>
<path class="st2" d="M20.8,16c0-0.5-0.1-0.9,0.4-1.1c0.5-0.2,0.8,0.1,1.1,0.3c0.9,0.8,1.2,1.9,1.7,2.8c1.2,2.2,2.4,4.4,3.6,6.5
	c1.1,1.9,2.2,3.8,3.3,5.7c0.2,0.2,0.3,0.5,0,0.6c-0.2,0.2-0.3-0.2-0.5-0.3c-1.8-2.5-3.5-5-5.3-7.6c-1.3-1.8-2.7-3.5-3.9-5.4
	C21,17,20.7,16.5,20.8,16z"/>
<path class="st3" d="M64.6,29.7c3.1-2.9,2.8-6.1-0.7-8.8c0.2-0.5,0.3-0.9,0.5-1.5c0.2-0.9-0.1-1.6-0.9-1.8c-0.7-0.2-1.4,0.2-1.7,1
	c-0.2,0.6-0.3,1-0.5,1.5c-0.6-0.2-1.2-0.4-1.7-0.6c0.2-0.6,0.3-1,0.5-1.5c0.2-0.9-0.1-1.7-0.9-1.9s-1.4,0.2-1.7,1.1
	c-0.2,0.5-0.3,1-0.5,1.5c-0.6-0.2-1-0.3-1.5-0.5c-0.8-0.2-1.5,0.1-1.7,0.9c-0.2,0.7,0.2,1.4,0.9,1.7c0.5,0.2,1,0.3,1.5,0.5
	c-1.3,4-2.4,7.9-3.6,11.9c-0.6-0.2-1-0.3-1.5-0.5c-0.8-0.2-1.5,0.1-1.7,0.9c-0.2,0.7,0.2,1.4,0.9,1.7c0.5,0.2,1,0.3,1.4,0.5
	c0,0.1,0,0.2,0,0.2c-0.2,0.6-0.3,1.1-0.5,1.7c-0.2,0.8,0.2,1.5,0.9,1.7s1.4-0.2,1.7-0.9c0.2-0.6,0.4-1.2,0.6-1.7
	c0.6,0.2,1.2,0.4,1.7,0.6c-0.2,0.6-0.4,1.2-0.6,1.8c-0.2,0.8,0.2,1.5,0.9,1.7s1.4-0.2,1.7-0.9c0.2-0.6,0.4-1.2,0.6-1.8
	c2.6,0.9,4.9,0.6,6.4-1.7C66.7,34,66.4,31.7,64.6,29.7z M58.9,22.3c1.3,0.4,2.8,0.7,4.1,1.3c1,0.5,1.3,1.7,0.9,2.8
	c-0.4,1-1.5,1.7-2.6,1.5c-1.3-0.3-2.6-0.8-3.9-1.2C57.9,25.3,58.4,23.8,58.9,22.3z M60.4,35.7c-1.7-0.5-3.4-1-5.2-1.6
	c0.5-1.6,0.9-3,1.4-4.6c0.4,0.2,0.8,0.2,1.2,0.4c1.3,0.4,2.7,0.8,3.9,1.3c1.3,0.4,2,1.7,1.6,3C63,35.4,61.6,36.1,60.4,35.7z"/>
<g id="Layer_2">
	<g id="Layer_1">
		<g>
			<defs>
				<circle id="SVGID_1_" cx="117.6" cy="93" r="41.2"/>
			</defs>
			<clipPath id="SVGID_00000092421581944132730640000001652263930198590372_">
				<use xlink:href="#SVGID_1_"  style="overflow:visible;"/>
			</clipPath>
			<g style="clip-path:url(#SVGID_00000092421581944132730640000001652263930198590372_);">
				<circle class="st5" cx="117.6" cy="93" r="41.2"/>
				<path class="st6" d="M160.1,110.1c-18.9-8.5-38.4-32.4-40.1-33.5c-1.6-1.1-3.8,0.3-3.8,0.3c-1.4-2.2-3.6,0.3-3.6,0.3
					c-10.2,17.3-37.4,33.8-37.4,33.8s13.1,24,43.2,24C149.1,134.9,160.1,110.1,160.1,110.1z"/>
				<path class="st3" d="M99.1,91.9c0,0,5.5-2.5,4.4,1.6S98,103.7,99.4,104s5.2-3.6,6.3-3c1.1,0.5,1.9,0.3,1.4,2.2
					c-0.5,1.9-1.1,3.3,0,3.3s1.9-2.5,3.3-4.9c1.4-2.5,3.6-1.4,4.4-0.5c0.8,0.8,3.3,5.5,5.2,4.9s3-3,2.2-8.5s0.5-7.1,0.5-7.1
					s1.6-0.8,4.7,3s8.5,9.6,9.3,9.3c0.8-0.3-3.8-6.3-2.7-6.9c1.1-0.5,5.5,0.8,7.7,2.7c0,0,0.8,3.1,0.8,0.1L120,76.5l-3.8,0.3
					l-3.6,0.3C112.6,77.1,103.8,90.2,99.1,91.9z"/>
				<path class="st7" d="M160.1,110.9c-18.9-8.5-38.4-33.3-40.1-34.4c-1.6-1.1-3.8,0.3-3.8,0.3c-1.4-2.2-3.6,0.3-3.6,0.3
					c-10.2,17.3-37.4,33.8-37.4,33.8"/>
			</g>
		</g>
		<circle class="st7" cx="117.6" cy="93" r="41.2"/>
	</g>
</g>
</svg>
